<?xml version="1.0" encoding="UTF-8"?>
<!DOCTYPE svg PUBLIC "-//W3C//DTD SVG 1.1//EN" "http://www.w3.org/Graphics/SVG/1.1/DTD/svg11.dtd">
<!-- Creator: CorelDRAW 2020 (64-Bit) -->
<svg xmlns="http://www.w3.org/2000/svg" xml:space="preserve" width="10mm" height="10mm" version="1.1" style="shape-rendering:geometricPrecision; text-rendering:geometricPrecision; image-rendering:optimizeQuality; fill-rule:evenodd; clip-rule:evenodd"
viewBox="0 0 25.93 25.93"
 xmlns:xlink="http://www.w3.org/1999/xlink"
 xmlns:xodm="http://www.corel.com/coreldraw/odm/2003">
 <defs>
  <style type="text/css">
   <![CDATA[
    .fil0 {fill:#FEFEFE;fill-rule:nonzero}
   ]]>
  </style>
 </defs>
 <g id="Слой_x0020_1">
  <metadata id="CorelCorpID_0Corel-Layer"/>
  <path class="fil0" d="M25.93 21.5c0,2.45 -1.98,4.43 -4.43,4.43l-3.71 0 0 -9.95 3.34 0 0.5 -3.88 -3.84 0 0 -2.48c0,-1.12 0.31,-1.89 1.92,-1.89l2.05 -0 0 -3.47c-0.36,-0.05 -1.57,-0.15 -2.99,-0.15 -2.96,0 -4.99,1.81 -4.99,5.13l0 2.86 -3.35 0 0 3.88 3.35 0 0 9.95 -9.35 0c-2.45,0 -4.43,-1.98 -4.43,-4.43l0 -17.07c0,-2.45 1.98,-4.43 4.43,-4.43l17.07 0c2.45,0 4.43,1.98 4.43,4.43l0 17.07z"/>
 </g>
</svg>
