<?xml version="1.0" encoding="UTF-8"?>
<!DOCTYPE svg PUBLIC "-//W3C//DTD SVG 1.1//EN" "http://www.w3.org/Graphics/SVG/1.1/DTD/svg11.dtd">
<!-- Creator: CorelDRAW 2020 (64-Bit) -->
<svg xmlns="http://www.w3.org/2000/svg" xml:space="preserve" width="10mm" height="10mm" version="1.1" style="shape-rendering:geometricPrecision; text-rendering:geometricPrecision; image-rendering:optimizeQuality; fill-rule:evenodd; clip-rule:evenodd"
viewBox="0 0 22.9 22.9"
 xmlns:xlink="http://www.w3.org/1999/xlink"
 xmlns:xodm="http://www.corel.com/coreldraw/odm/2003">
 <defs>
  <style type="text/css">
   <![CDATA[
    .fil0 {fill:#FEFEFE}
   ]]>
  </style>
 </defs>
 <g id="Слой_x0020_1">
  <metadata id="CorelCorpID_0Corel-Layer"/>
  <path class="fil0" d="M3.88 0l15.13 0c2.14,0 3.88,1.75 3.88,3.88l0 15.13c0,2.14 -1.75,3.88 -3.88,3.88l-15.13 0c-2.14,0 -3.88,-1.75 -3.88,-3.88l0 -15.13c0,-2.14 1.75,-3.88 3.88,-3.88zm13.67 6.12c0,0.6 -0.49,1.09 -1.09,1.09 -0.6,0 -1.09,-0.49 -1.09,-1.09 0,-0.6 0.49,-1.09 1.09,-1.09 0.6,0 1.09,0.49 1.09,1.09zm-6.11 1.39c-2.17,0 -3.94,1.77 -3.94,3.94 0,2.17 1.77,3.94 3.94,3.94 2.17,0 3.94,-1.77 3.94,-3.94 0,-2.17 -1.77,-3.94 -3.94,-3.94zm0 9.18c-2.89,0 -5.25,-2.35 -5.25,-5.25 0,-2.89 2.35,-5.25 5.25,-5.25 2.89,0 5.25,2.35 5.25,5.25 0,2.89 -2.35,5.25 -5.25,5.25zm-3.66 -13.05c-2.53,0 -4.58,2.06 -4.58,4.58l0 6.45c0,2.53 2.06,4.58 4.58,4.58l7.32 0c2.53,0 4.58,-2.06 4.58,-4.58l0 -6.45c0,-2.53 -2.06,-4.58 -4.58,-4.58l-7.32 0zm7.32 16.93l-7.32 0c-3.25,0 -5.89,-2.64 -5.89,-5.89l0 -6.45c0,-3.25 2.64,-5.89 5.89,-5.89l7.32 0c3.25,0 5.89,2.64 5.89,5.89l0 6.45c0,3.25 -2.64,5.89 -5.89,5.89z"/>
 </g>
</svg>
