<svg aria-hidden="true" style="position: absolute; width: 0; height: 0; overflow: hidden;" version="1.1"
    xmlns="http://www.w3.org/2000/svg" xmlns:xlink="http://www.w3.org/1999/xlink">
    <defs>
        <symbol id="z-1" viewBox="0 0 18 32">
            <path
                d="M17.813 12.384c-0.070 0.207-0.261 0.336-0.466 0.336-0.055 0-0.107-0.008-0.16-0.027-0.258-0.088-0.396-0.369-0.308-0.628 0.234-0.687 0.162-1.442-0.199-2.072s-0.976-1.073-1.684-1.216c-0.267-0.053-0.439-0.314-0.386-0.581 0.055-0.269 0.314-0.443 0.579-0.388 0.989 0.199 1.842 0.816 2.345 1.692 0.501 0.876 0.603 1.928 0.279 2.886zM2.818 31.541c-0.086 0.178-0.261 0.281-0.447 0.281-0.070 0-0.142-0.016-0.211-0.047-0.246-0.119-0.351-0.414-0.234-0.661 0 0 2.718-5.723 2.718-5.723-0.041-0.045-0.074-0.096-0.098-0.156-0.876-2.279-0.821-5.778-0.808-6.291 0 0-1.331-6.704-1.331-6.704-0.002-0.012-0.004-0.021-0.006-0.033-0.16-1.225 0.213-2.46 1.024-3.391 0.812-0.929 1.984-1.461 3.216-1.461 0.047 0 0.096 0.006 0.141 0.019 0.016 0.004 1.489 0.441 2.825 0.441 0 0 1.27 0 1.27 0 0.544 0 1.649-0.072 2.113-0.154 0.023-0.004 0.049-0.004 0.072-0.006 0 0 2.944-6.201 2.944-6.201 0.117-0.246 0.41-0.351 0.656-0.234 0.246 0.119 0.351 0.414 0.234 0.661 0 0-14.080 29.66-14.080 29.66zM10.878 8.806c0 0-1.27 0-1.27 0-1.321 0-2.699-0.367-3.034-0.462-0.921 0.020-1.795 0.427-2.406 1.126-0.62 0.71-0.907 1.655-0.79 2.593 0 0 1.341 6.743 1.341 6.743 0.006 0.037 0.010 0.074 0.008 0.113 0 0.033-0.092 3.015 0.507 5.233 0 0 7.329-15.44 7.329-15.44-0.562 0.055-1.261 0.094-1.684 0.094zM4.816 3.12c0 0-1.366 0.369-1.366 0.369s-0.369 1.372-0.369 1.372c-0.059 0.217-0.254 0.367-0.476 0.367s-0.418-0.15-0.476-0.367c0 0-0.367-1.372-0.367-1.372s-1.366-0.369-1.366-0.369c-0.217-0.059-0.365-0.254-0.365-0.478s0.148-0.419 0.365-0.478c0 0 1.366-0.369 1.366-0.369s0.367-1.372 0.367-1.372c0.059-0.217 0.254-0.367 0.476-0.367s0.418 0.15 0.476 0.367c0 0 0.369 1.372 0.369 1.372s1.366 0.369 1.366 0.369c0.215 0.059 0.365 0.254 0.365 0.478s-0.15 0.419-0.365 0.478zM2.605 2.42c-0.047 0.096-0.127 0.174-0.222 0.222 0.096 0.049 0.176 0.127 0.222 0.224 0.049-0.098 0.127-0.176 0.222-0.224-0.096-0.049-0.174-0.127-0.222-0.222zM6.927 26.359c0.779 0 0.915-0.636 0.935-2.546 0.016-1.641 0.037-3.856 2.133-4.094 0.045-0.014 0.094-0.020 0.142-0.020 0 0 0.213 0 0.213 0 0.049 0 0.096 0.006 0.14 0.020 2.098 0.238 2.119 2.453 2.135 4.094 0.018 1.91 0.156 2.546 0.935 2.546 0.306 0 0.574-0.123 0.819-0.379 1.284-1.335 1.432-5.549 1.38-7.061 0-0.039 0.002-0.076 0.010-0.113 0 0 0.201-1.013 0.201-1.013 0.023-0.121 0.090-0.221 0.179-0.289 0 0-1.567 0-1.567 0-0.172 0-0.332-0.090-0.421-0.238 0 0-0.523-0.859-0.523-0.859s-0.517 0.896-0.517 0.896c-0.090 0.156-0.256 0.246-0.427 0.246-0.068 0.002-0.14-0.014-0.207-0.045 0 0-0.866-0.404-0.866-0.404-0.246-0.115-0.353-0.41-0.238-0.66 0.115-0.248 0.408-0.355 0.656-0.238 0 0 0.457 0.213 0.457 0.213s0.704-1.223 0.704-1.223c0.088-0.15 0.248-0.244 0.421-0.248 0.002 0 0.004 0 0.006 0 0.172 0 0.33 0.090 0.419 0.238 0 0 0.812 1.331 0.812 1.331s1.319 0 1.319 0c0 0 0.398-1.762 0.398-1.762s0.127-0.64 0.127-0.64c0.053-0.269 0.312-0.443 0.579-0.39 0.267 0.055 0.441 0.314 0.386 0.583 0 0-0.129 0.654-0.129 0.654s-0.468 2.070-0.468 2.070c-0.018 0.076-0.051 0.142-0.098 0.199-0.055 0.111-0.146 0.197-0.261 0.242 0.17 0.105 0.267 0.308 0.226 0.517 0 0-0.191 0.958-0.191 0.958 0.018 0.65 0.099 5.897-1.659 7.725-0.435 0.451-0.948 0.681-1.528 0.681-1.887 0-1.906-1.957-1.922-3.528-0.020-2.061-0.166-3.063-1.395-3.13-1.227 0.066-1.376 1.069-1.395 3.13-0.016 1.571-0.033 3.528-1.92 3.528-0.273 0-0.494-0.222-0.494-0.496s0.221-0.496 0.494-0.496z">
            </path>
        </symbol>
        <symbol id="z-2" viewBox="0 0 18 32">
            <path
                d="M18.117 14.79c-0.002 0.011-0.005 0.025-0.007 0.036 0 0-1.532 7.616-1.532 7.616 0.018 0.744 0.111 6.704-1.913 8.783-0.504 0.515-1.098 0.776-1.768 0.776-2.183 0-2.206-2.229-2.222-4.019-0.023-2.331-0.193-3.468-1.595-3.543-1.405 0.075-1.573 1.212-1.595 3.543-0.018 1.791-0.041 4.019-2.224 4.019-0.67 0-1.264-0.261-1.766-0.776-2.027-2.079-1.934-8.039-1.913-8.783 0 0-1.534-7.616-1.534-7.616-0.002-0.011-0.005-0.025-0.005-0.036-0.186-1.398 0.245-2.805 1.182-3.863 0.935-1.060 2.288-1.666 3.708-1.666 0.057 0 0.111 0.009 0.166 0.023 0.009 0.005 0.576 0.17 1.348 0.309 1.101-3.649 2.224-5.649 2.326-5.828 0.159-0.277 0.513-0.372 0.79-0.216 0.279 0.157 0.374 0.506 0.218 0.783-0.025 0.041-1.078 1.925-2.145 5.422 0.238 0.020 0.477 0.032 0.713 0.032 0 0 1.462 0 1.462 0 1.536 0 3.232-0.495 3.248-0.502 0.054-0.014 0.111-0.023 0.166-0.023 1.421 0 2.773 0.606 3.711 1.666 0.935 1.058 1.366 2.465 1.182 3.863zM4.854 10.41c-1.058 0.020-2.061 0.483-2.76 1.273-0.713 0.806-1.042 1.875-0.908 2.937 0 0 1.543 7.662 1.543 7.662 0.009 0.043 0.011 0.088 0.009 0.132-0.057 1.716 0.113 6.502 1.589 8.016 0.045 0.048 0.093 0.088 0.141 0.129-0.665-8.597 0.415-15.303 1.659-19.856-0.611-0.116-1.083-0.241-1.273-0.293zM16.064 11.683c-0.699-0.79-1.702-1.253-2.76-1.273-0.388 0.109-1.974 0.524-3.493 0.524 0 0-1.462 0-1.462 0-0.347 0-0.699-0.023-1.037-0.059-1.25 4.532-2.372 11.295-1.666 19.915 0.549-0.218 0.663-1.017 0.681-2.819 0.018-1.866 0.043-4.389 2.465-4.659 0.052-0.016 0.109-0.025 0.166-0.025 0 0 0.243 0 0.243 0 0.059 0 0.113 0.009 0.166 0.025 2.424 0.27 2.449 2.794 2.467 4.659 0.020 2.165 0.177 2.885 1.064 2.885 0.35 0 0.654-0.141 0.935-0.427 1.475-1.514 1.645-6.3 1.586-8.016-0.002-0.043 0.002-0.088 0.011-0.132 0 0 1.541-7.662 1.541-7.662 0.136-1.062-0.195-2.131-0.908-2.937zM12.326 2.794c-0.086 0-0.175-0.020-0.256-0.061 0 0-3.352-1.648-3.352-1.648-0.286-0.141-0.404-0.486-0.261-0.769s0.49-0.399 0.776-0.259c0 0 3.352 1.648 3.352 1.648 0.286 0.141 0.402 0.486 0.261 0.769-0.102 0.202-0.306 0.32-0.52 0.32zM11.949 3.141c0.288 0.141 0.404 0.486 0.261 0.769-0.1 0.202-0.304 0.318-0.517 0.318-0.086 0-0.175-0.018-0.256-0.059 0 0-3.352-1.65-3.352-1.65-0.286-0.141-0.404-0.483-0.261-0.769 0.143-0.284 0.488-0.399 0.776-0.259 0 0 3.35 1.65 3.35 1.65z">
            </path>
        </symbol>
        <symbol id="z-3" viewBox="0 0 20 32">
            <path
                d="M19.703 6.635c-0.003 0.015-0.005 0.030-0.008 0.045 0 0-1.22 6.13-1.22 6.13-0.003 0.015-0.008 0.033-0.012 0.047-0.017 0.063-0.427 1.533-1.24 3.205-0.115 0.238-0.35 0.375-0.598 0.375-0.098 0-0.195-0.023-0.288-0.067-0.33-0.16-0.467-0.557-0.308-0.885 0.707-1.455 1.098-2.775 1.15-2.96 0 0 1.212-6.082 1.212-6.082 0.163-1.29-0.235-2.59-1.093-3.567-0.835-0.953-2.027-1.512-3.29-1.545-0.432 0.163-1.822 0.63-3.575 0.63 0 0-1.12 0-1.12 0-1.752 0-3.143-0.468-3.575-0.63-1.263 0.032-2.455 0.593-3.29 1.545-0.857 0.978-1.255 2.277-1.093 3.567 0 0 1.213 6.088 1.213 6.088 0.035 0.133 0.35 1.242 1.17 2.828 0.167 0.325 0.040 0.725-0.285 0.893s-0.725 0.043-0.893-0.283c-0.948-1.832-1.268-3.072-1.28-3.125-0.002-0.010-0.005-0.023-0.008-0.033 0 0-1.22-6.13-1.22-6.13-0.003-0.015-0.005-0.030-0.007-0.045-0.22-1.675 0.292-3.362 1.405-4.635 1.115-1.27 2.72-1.998 4.41-1.998 0.088 0 0.178 0.018 0.258 0.052 0.013 0.005 1.4 0.58 3.195 0.58 0 0 1.12 0 1.12 0 1.81 0 3.18-0.573 3.192-0.58 0.082-0.035 0.17-0.052 0.26-0.052 1.688 0 3.295 0.728 4.41 1.998 1.113 1.272 1.625 2.96 1.405 4.635zM3.725 16.855c0 0 12.3 0 12.3 0 0.21 0 0.407 0.1 0.532 0.27 0.125 0.168 0.163 0.387 0.1 0.587 0 0-0.43 1.402-0.43 1.402 0.19 0.058 0.355 0.2 0.427 0.4 0.128 0.345-0.047 0.725-0.39 0.852 0 0-0.492 0.183-0.492 0.183-0.002 0.015-0.002 0.032-0.005 0.047 0 0-0.248 1.152-0.248 1.152 0.318-0.065 0.642 0.11 0.755 0.422 0.122 0.345-0.055 0.725-0.4 0.848 0 0-0.682 0.245-0.682 0.245s-0.283 1.32-0.283 1.32c0 0 0.080-0.027 0.080-0.027 0.348-0.12 0.723 0.065 0.842 0.41s-0.065 0.723-0.41 0.843c0 0-0.84 0.29-0.84 0.29s-0.537 2.505-0.537 2.505c-0.465 2.27-3.852 3.398-4.227 3.398-0.005 0-0.008 0-0.010 0-0.070-0.005-0.137-0.020-0.197-0.045 0 0-0.012-0.003-0.012-0.003-0.943-0.33-3.050-1.227-3.728-2.845 0 0-0.135 0.047-0.135 0.047-0.070 0.025-0.143 0.035-0.215 0.035-0.275 0-0.532-0.172-0.628-0.445-0.117-0.348 0.065-0.725 0.41-0.843 0 0 0.235-0.082 0.235-0.082s-0.22-1.015-0.22-1.015c0 0-0.295 0.108-0.295 0.108-0.075 0.025-0.15 0.038-0.225 0.038-0.27 0-0.525-0.168-0.623-0.438-0.122-0.345 0.055-0.725 0.4-0.85 0 0 0.463-0.165 0.463-0.165s-0.195-0.91-0.195-0.91c0 0-0.253 0.093-0.253 0.093-0.075 0.027-0.152 0.043-0.228 0.043-0.27 0-0.522-0.168-0.623-0.435-0.127-0.343 0.050-0.725 0.392-0.85 0 0 0.428-0.16 0.428-0.16s-0.175-0.815-0.175-0.815c-0.063 0.017-0.125 0.030-0.188 0.030-0.268 0-0.518-0.163-0.62-0.425-0.13-0.343 0.040-0.725 0.38-0.858 0 0 0.145-0.055 0.145-0.055s-0.12-0.56-0.12-0.56c-0.005-0.020-0.005-0.038-0.007-0.058-0.022-0.043-0.042-0.085-0.058-0.133 0 0-0.825-2.695-0.825-2.695-0.063-0.2-0.025-0.42 0.1-0.587 0.125-0.17 0.323-0.27 0.533-0.27zM9.867 30.642c0.742-0.258 2.635-1.113 2.88-2.31 0 0 0.373-1.727 0.373-1.727s-5.997 2.073-5.997 2.073c0.412 0.85 1.618 1.547 2.745 1.965zM6.798 27.387c0 0 6.647-2.297 6.647-2.297s0.28-1.297 0.28-1.297c0 0-7.147 2.565-7.147 2.565s0.22 1.030 0.22 1.030zM6.295 25.050c0 0 7.758-2.785 7.758-2.785s0.252-1.175 0.252-1.175c0 0-8.207 3.038-8.207 3.038s0.197 0.922 0.197 0.922zM5.183 20.017c0.013 0.043 0.020 0.082 0.025 0.122 0.030 0.055 0.055 0.115 0.070 0.177 0 0 0.077 0.358 0.077 0.358s4.398-1.695 4.398-1.695c0.34-0.13 0.725 0.038 0.855 0.38 0.133 0.343-0.037 0.725-0.38 0.858 0 0-4.59 1.77-4.59 1.77s0.178 0.83 0.178 0.83c0 0 8.902-3.29 8.902-3.29s0.41-1.348 0.41-1.348c0 0-10.508 0-10.508 0s0.563 1.837 0.563 1.837z">
            </path>
        </symbol>
        <symbol id="z-4" viewBox="0 0 20 32">
            <path
                d="M20.052 12.739c0 0.013-0.003 0.026-0.005 0.042 0 0-1.695 8.516-1.695 8.516 0.021 0.838 0.124 7.505-2.118 9.83-0.558 0.579-1.219 0.873-1.962 0.873-2.425 0-2.449-2.499-2.467-4.506-0.026-2.602-0.212-3.869-1.756-3.954-1.542 0.085-1.727 1.351-1.753 3.954-0.018 2.007-0.042 4.506-2.467 4.506-0.743 0-1.404-0.294-1.962-0.873-2.243-2.325-2.139-8.992-2.118-9.83 0 0-1.695-8.516-1.695-8.516-0.003-0.016-0.005-0.029-0.008-0.042-0.204-1.566 0.272-3.142 1.312-4.329 1.037-1.185 2.536-1.864 4.11-1.864 0.063 0 0.124 0.008 0.185 0.026 0.019 0.005 1.891 0.558 3.591 0.558 0 0 1.616 0 1.616 0 1.698 0 3.57-0.553 3.591-0.558 0.058-0.019 0.122-0.026 0.185-0.026 1.574 0 3.073 0.68 4.11 1.864 1.037 1.187 1.515 2.764 1.309 4.329zM17.764 9.269c-0.77-0.881-1.875-1.396-3.044-1.42-0.431 0.122-2.184 0.584-3.864 0.584 0 0-1.616 0-1.616 0-1.679 0-3.433-0.463-3.866-0.584-1.166 0.024-2.272 0.539-3.044 1.42-0.785 0.899-1.15 2.092-1 3.277 0 0 1.706 8.569 1.706 8.569 0.008 0.050 0.013 0.101 0.011 0.151-0.063 1.917 0.124 7.267 1.753 8.957 0.307 0.317 0.643 0.473 1.026 0.473 0.973 0 1.145-0.804 1.166-3.216 0.021-2.092 0.048-4.919 2.737-5.221 0.058-0.018 0.119-0.029 0.182-0.029 0 0 0.27 0 0.27 0 0.066 0 0.127 0.011 0.185 0.029 2.687 0.302 2.716 3.129 2.735 5.221 0.024 2.412 0.196 3.216 1.169 3.216 0.383 0 0.719-0.156 1.026-0.476 1.632-1.69 1.817-7.037 1.753-8.955-0.003-0.050 0-0.101 0.011-0.151 0 0 1.706-8.569 1.706-8.569 0.148-1.185-0.214-2.378-1.002-3.277zM14.183 2.896c-1.111 0.182-2.579 0.28-4.136 0.28-1.555 0-3.023-0.098-4.134-0.28-1.15-0.19-2.214-0.479-2.214-1.306s1.063-1.116 2.214-1.306c1.111-0.18 2.579-0.28 4.134-0.28 1.558 0 3.025 0.101 4.136 0.28 1.15 0.19 2.214 0.479 2.214 1.306s-1.063 1.116-2.214 1.306zM10.047 1.304c-1.79 0-3.15 0.132-4.030 0.286 0.881 0.153 2.24 0.286 4.030 0.286 1.793 0 3.152-0.132 4.033-0.286-0.881-0.153-2.24-0.286-4.033-0.286z">
            </path>
        </symbol>
        <symbol id="z-5" viewBox="0 0 19 32">
            <path
                d="M19.365 11.982c0 0.012-0.002 0.023-0.004 0.035 0 0-1.377 6.922-1.377 6.922 0.025 0.867 0.097 6.113-1.728 8.006-0.458 0.475-0.999 0.716-1.608 0.716-1.992 0-2.013-2.044-2.027-3.685-0.021-2.1-0.169-3.124-1.404-3.194-1.237 0.070-1.385 1.094-1.406 3.194-0.014 1.641-0.035 3.685-2.025 3.685-0.303 0-0.551-0.248-0.551-0.551 0-0.306 0.248-0.551 0.551-0.551 0.772 0 0.908-0.648 0.927-2.593 0.017-1.709 0.039-4.020 2.24-4.267 0.050-0.014 0.101-0.023 0.153-0.023 0 0 0.221 0 0.221 0 0.052 0 0.103 0.008 0.153 0.023 0.805 0.091 1.317 0.458 1.645 0.968 0 0 0.855 0 0.855 0 0.303 0 0.549 0.248 0.549 0.551 0 0.306-0.246 0.551-0.549 0.551 0 0-0.427 0-0.427 0 0.153 0.712 0.161 1.503 0.167 2.197 0.019 1.945 0.155 2.593 0.929 2.593 0.308 0 0.568-0.122 0.818-0.38 1.026-1.063 1.346-3.921 1.412-5.874 0 0-0.863 0-0.863 0-0.303 0-0.549-0.246-0.549-0.551 0-0.303 0.246-0.551 0.549-0.551 0 0 0.875 0 0.875 0-0.002-0.105-0.004-0.202-0.006-0.291-0.002-0.043 0.002-0.085 0.010-0.126 0 0 1.123-5.646 1.123-5.646s-0.178 0-0.178 0c-0.303 0-0.549-0.246-0.549-0.551 0-0.303 0.246-0.551 0.549-0.551 0 0 0.396 0 0.396 0s0.043-0.217 0.043-0.217c0.198-1.571-0.696-3.045-2.176-3.592-0.285-0.105-0.431-0.421-0.326-0.706 0.105-0.287 0.419-0.434 0.704-0.328 1.974 0.729 3.159 2.696 2.884 4.788zM13.103 18.981c0 0-1.972 0-1.972 0-0.303 0-0.549-0.246-0.549-0.551 0-0.303 0.246-0.551 0.549-0.551 0 0 1.972 0 1.972 0 0.303 0 0.549 0.248 0.549 0.551 0 0.306-0.246 0.551-0.549 0.551zM13.248 13.909c0-0.303 0.246-0.549 0.549-0.549 0 0 1.972 0 1.972 0 0.303 0 0.549 0.246 0.549 0.549 0 0.306-0.246 0.551-0.549 0.551 0 0-1.972 0-1.972 0-0.303 0-0.549-0.246-0.549-0.551zM15.959 24.002c0 0.303-0.246 0.551-0.549 0.551 0 0-0.436 0-0.436 0-0.303 0-0.549-0.248-0.549-0.551s0.246-0.551 0.549-0.551c0 0 0.436 0 0.436 0 0.303 0 0.549 0.248 0.549 0.551zM14.417 17.276c0-0.303 0.248-0.549 0.551-0.549 0 0 1.055 0 1.055 0 0.303 0 0.551 0.246 0.551 0.549 0 0.306-0.248 0.551-0.551 0.551 0 0-1.055 0-1.055 0-0.303 0-0.551-0.246-0.551-0.551zM13.533 10.932c0 0 1.468 0 1.468 0 0.303 0 0.551 0.246 0.551 0.551 0 0.303-0.248 0.551-0.551 0.551 0 0-1.97 0-1.97 0-0.008 0-0.014-0.002-0.021-0.002 0 0-1.451 3.051-1.451 3.051s0.718 0 0.718 0c0.303 0 0.549 0.246 0.549 0.551 0 0.303-0.246 0.551-0.549 0.551 0 0-1.131 0-1.131 0-0.035 0-0.070-0.004-0.105-0.012 0 0-7.374 15.513-7.374 15.513-0.093 0.198-0.291 0.314-0.495 0.314-0.078 0-0.159-0.017-0.235-0.054-0.275-0.13-0.39-0.458-0.26-0.733 0 0 2.669-5.615 2.669-5.615-0.968-2.351-0.913-6.097-0.898-6.658 0 0-1.375-6.922-1.375-6.922-0.004-0.012-0.006-0.023-0.006-0.035-0.169-1.278 0.221-2.566 1.069-3.537 0.846-0.968 2.071-1.524 3.355-1.524 0.021 0 0.041 0 0.062 0.004 0 0 3.793 0.425 3.793 0.425 0.929-0.095 2.325-0.306 2.857-0.388 0 0 3.041-6.398 3.041-6.398 0.13-0.275 0.458-0.39 0.733-0.26 0.275 0.132 0.39 0.46 0.26 0.735 0 0-4.703 9.891-4.703 9.891zM11.396 8.454c-0.039 0.004-0.078 0.004-0.116 0 0 0-3.819-0.429-3.819-0.429-0.958 0.008-1.868 0.425-2.5 1.148-0.636 0.727-0.929 1.691-0.809 2.649 0 0 1.385 6.966 1.385 6.966 0.008 0.041 0.012 0.083 0.010 0.126 0 0.035-0.091 2.979 0.483 5.244 0 0 7.602-15.994 7.602-15.994-0.675 0.099-1.571 0.225-2.236 0.291zM7.011 10.463c0 0 0.347-0.093 0.347-0.093s0.093-0.347 0.093-0.347c0.064-0.242 0.283-0.409 0.531-0.409s0.467 0.167 0.531 0.409c0 0 0.093 0.347 0.093 0.347s0.347 0.093 0.347 0.093c0.239 0.064 0.407 0.283 0.407 0.533 0 0.248-0.167 0.467-0.407 0.531 0 0-0.347 0.095-0.347 0.095s-0.093 0.347-0.093 0.347c-0.064 0.239-0.283 0.407-0.531 0.407s-0.467-0.167-0.531-0.407c0 0-0.093-0.347-0.093-0.347s-0.347-0.095-0.347-0.095c-0.239-0.064-0.407-0.283-0.407-0.531 0-0.25 0.167-0.469 0.407-0.533zM5 3.243c0 0-1.391 0.376-1.391 0.376s-0.376 1.396-0.376 1.396c-0.064 0.239-0.281 0.407-0.531 0.407-0.248 0-0.465-0.167-0.531-0.407 0 0-0.374-1.396-0.374-1.396s-1.391-0.376-1.391-0.376c-0.239-0.066-0.407-0.283-0.407-0.533s0.167-0.467 0.407-0.533c0 0 1.391-0.376 1.391-0.376s0.374-1.394 0.374-1.394c0.066-0.242 0.283-0.409 0.531-0.409 0.25 0 0.467 0.167 0.531 0.409 0 0 0.376 1.394 0.376 1.394s1.391 0.376 1.391 0.376c0.239 0.066 0.407 0.283 0.407 0.533s-0.167 0.467-0.407 0.533zM2.702 2.558c-0.039 0.062-0.091 0.114-0.151 0.153 0.060 0.041 0.111 0.093 0.151 0.153 0.041-0.060 0.093-0.111 0.153-0.153-0.060-0.039-0.111-0.091-0.153-0.153z">
            </path>
        </symbol>
        <symbol id="z-6" viewBox="0 0 22 32">
            <path
                d="M17.465 7.59c-0.32-0.060-0.533-0.369-0.473-0.689s0.369-0.533 0.691-0.473c2.486 0.459 4.174 2.783 3.842 5.287 0 0-1.609 10.646-1.609 10.646-0.007 0.046-0.021 0.093-0.039 0.134 0.014 0.065 0.021 0.13 0.014 0.199-0.427 3.736-1.57 5.628-3.399 5.628-2.126 0-2.147-2.166-2.166-3.907-0.021-2.219-0.179-3.302-1.489-3.376-1.31 0.074-1.466 1.157-1.489 3.376-0.016 1.741-0.037 3.907-2.166 3.907-0.73 0-1.363-0.318-1.885-0.944-0.209-0.25-0.174-0.624 0.079-0.832s0.626-0.174 0.835 0.079c0.292 0.352 0.601 0.517 0.972 0.517 0.816 0 0.962-0.684 0.981-2.739 0.019-1.813 0.042-4.262 2.393-4.526 0.053-0.014 0.107-0.023 0.165-0.023 0 0 0.234 0 0.234 0 0.056 0 0.111 0.009 0.165 0.023 2.349 0.264 2.374 2.713 2.391 4.526 0.021 2.055 0.165 2.739 0.981 2.739 1.078 0 1.888-1.67 2.221-4.582 0.007-0.056 0.021-0.104 0.042-0.153-0.016-0.072-0.021-0.146-0.009-0.223 0 0 0.575-3.803 0.575-3.803-0.030-0.046-0.056-0.097-0.072-0.155-0.118-0.399-0.211-0.642-0.281-0.788-0.012 0.012-0.023 0.023-0.032 0.035-0.269 0.269-0.638 0.635-1.185 0.635-0.8 0-1.159-0.865-1.447-1.561-0.060-0.146-0.146-0.352-0.225-0.51-0.54 0.74-0.979 1.064-1.459 1.076-0.009 0.002-0.019 0.002-0.030 0.002-0.526 0-0.846-0.397-1.060-0.661-0.077-0.095-0.202-0.25-0.26-0.276-0.234 0.005-0.633 0.468-0.923 0.809-0.397 0.464-0.802 0.937-1.338 1.067 0 0-6.282 13.6-6.282 13.6-0.1 0.216-0.313 0.343-0.538 0.343-0.083 0-0.167-0.019-0.248-0.056-0.297-0.134-0.427-0.487-0.29-0.784 0 0 2.674-5.788 2.674-5.788-0.77-2.47-0.719-5.813-0.705-6.356 0 0-1.466-7.328-1.466-7.328-0.002-0.014-0.005-0.025-0.007-0.039-0.179-1.354 0.237-2.722 1.141-3.75s2.21-1.616 3.58-1.616c0.058 0 0.116 0.009 0.169 0.026 0.016 0.005 1.635 0.48 3.1 0.48 0 0 1.398 0 1.398 0 0.566 0 0.96-0.072 1.445-0.162 0 0 2.901-6.282 2.901-6.282 0.137-0.297 0.489-0.424 0.786-0.29 0.297 0.137 0.427 0.489 0.29 0.784 0 0-6.732 14.579-6.732 14.579 0.306-0.243 0.652-0.415 1.062-0.415 0.589 0 0.934 0.429 1.164 0.712 0.046 0.058 0.111 0.139 0.162 0.19 0.081-0.058 0.25-0.209 0.524-0.589 0.327-0.454 0.689-0.659 1.074-0.617 0.635 0.074 0.914 0.747 1.185 1.401 0.097 0.237 0.271 0.654 0.399 0.809 0.083-0.056 0.22-0.19 0.299-0.269 0.25-0.25 0.631-0.631 1.15-0.496 0.144 0.035 0.269 0.107 0.38 0.204 0 0 0.726-4.798 0.726-4.798 0.248-1.869-1.020-3.613-2.887-3.958zM14.384 7.919c-0.253 0.030-0.526 0.049-0.846 0.049 0 0-1.398 0-1.398 0-1.454 0-2.968-0.397-3.351-0.503-0.999 0.021-1.946 0.461-2.609 1.213-0.675 0.768-0.986 1.786-0.858 2.797 0 0 1.475 7.376 1.475 7.376 0.009 0.044 0.014 0.090 0.012 0.137 0 0.028-0.077 2.432 0.32 4.645 0 0 7.256-15.712 7.256-15.712zM5.338 4.32c0 0-1.479 0.399-1.479 0.399s-0.397 1.472-0.397 1.472c-0.070 0.257-0.306 0.436-0.573 0.436-0.269 0-0.503-0.179-0.573-0.436 0 0-0.397-1.472-0.397-1.472s-1.479-0.399-1.479-0.399c-0.257-0.067-0.438-0.301-0.438-0.57 0-0.267 0.181-0.501 0.438-0.57 0 0 1.479-0.397 1.479-0.397s0.397-1.472 0.397-1.472c0.070-0.257 0.304-0.438 0.573-0.438 0.267 0 0.503 0.181 0.573 0.438 0 0 0.397 1.472 0.397 1.472s1.479 0.397 1.479 0.397c0.257 0.070 0.438 0.304 0.438 0.57 0 0.269-0.181 0.503-0.438 0.57zM2.889 3.603c-0.039 0.056-0.090 0.107-0.148 0.146 0.058 0.042 0.109 0.090 0.148 0.148 0.039-0.058 0.090-0.107 0.148-0.148-0.058-0.039-0.109-0.090-0.148-0.146z">
            </path>
        </symbol>
        <symbol id="z-7" viewBox="0 0 51 32">
            <path
                d="M49.739 19.604c0 0-0.336 0-0.336 0-0.081 0-0.158 0.013-0.233 0.036-3.362 0.378-3.397 3.892-3.42 6.494-0.029 2.99-0.242 3.985-1.451 3.985-0.475 0-0.892-0.191-1.274-0.585-2.033-2.095-2.266-8.737-2.185-11.122 0-0.061-0.003-0.126-0.016-0.187 0 0-1.319-6.597-1.319-6.597s6.174 0 6.174 0c0 0 0 1.235 0 1.235 0 1.002 0.818 1.817 1.823 1.817 0 0 1.855 0 1.855 0 0.453 0 0.821-0.365 0.821-0.818s-0.368-0.818-0.821-0.818c0 0-1.855 0-1.855 0-0.1 0-0.181-0.081-0.181-0.181 0 0 0-1.807 0-1.807 0.023-0.078 0.042-0.158 0.042-0.246s-0.019-0.168-0.042-0.246c0 0 0-1.519 0-1.519 0-0.1 0.081-0.181 0.181-0.181 0 0 1.855 0 1.855 0 0.453 0 0.821-0.368 0.821-0.821 0-0.449-0.368-0.815-0.821-0.815 0 0-1.855 0-1.855 0-1.005 0-1.823 0.815-1.823 1.817 0 0 0 0.947 0 0.947s-6.5 0-6.5 0c0 0-0.482-2.408-0.482-2.408-0.187-1.471 0.265-2.951 1.248-4.066 0.96-1.093 2.337-1.733 3.791-1.762 0.54 0.152 2.728 0.727 4.826 0.727 0.453 0 0.818-0.365 0.818-0.818s-0.365-0.818-0.818-0.818c-2.12 0-4.457-0.689-4.48-0.695-0.078-0.023-0.155-0.036-0.236-0.036-1.965 0-3.84 0.847-5.136 2.324-0.546 0.621-0.966 1.325-1.251 2.082-0.288-0.756-0.708-1.464-1.254-2.082-1.296-1.477-3.168-2.324-5.136-2.324-0.081 0-0.158 0.013-0.236 0.036-0.023 0.006-2.36 0.695-4.477 0.695 0 0-2.020 0-2.020 0-2.117 0-4.454-0.689-4.477-0.695-0.078-0.023-0.158-0.036-0.236-0.036-1.968 0-3.84 0.847-5.136 2.324-0.462 0.524-0.834 1.112-1.112 1.739-0.278-0.627-0.65-1.215-1.112-1.739-1.296-1.477-3.171-2.324-5.136-2.324-0.061 0-0.123 0.006-0.184 0.023-0.029 0.006-3.151 0.708-5.304 0.708-0.453 0-0.821 0.365-0.821 0.818s0.369 0.818 0.821 0.818c2.14 0 5.010-0.604 5.576-0.727 1.461 0.023 2.848 0.663 3.814 1.762 0.983 1.115 1.435 2.596 1.248 4.066 0 0-0.482 2.408-0.482 2.408s-7.027 0-7.027 0c0 0 0-0.947 0-0.947 0-1.002-0.818-1.817-1.823-1.817 0 0-1.852 0-1.852 0-0.453 0-0.821 0.365-0.821 0.815 0 0.453 0.369 0.821 0.821 0.821 0 0 1.852 0 1.852 0 0.1 0 0.184 0.081 0.184 0.181 0 0 0 3.817 0 3.817 0 0.1-0.084 0.181-0.184 0.181 0 0-1.852 0-1.852 0-0.453 0-0.821 0.365-0.821 0.818s0.369 0.818 0.821 0.818c0 0 1.852 0 1.852 0 1.005 0 1.823-0.815 1.823-1.817 0 0 0-1.235 0-1.235s6.701 0 6.701 0c0 0-1.319 6.597-1.319 6.597-0.013 0.061-0.016 0.126-0.016 0.187 0.081 2.385-0.152 9.028-2.185 11.122-0.381 0.394-0.798 0.585-1.274 0.585-1.209 0-1.422-0.996-1.451-3.985-0.023-2.602-0.058-6.116-3.42-6.494-0.074-0.023-0.152-0.036-0.233-0.036 0 0-0.336 0-0.336 0-0.453 0-0.818 0.365-0.821 0.815 0 0.453 0.362 0.818 0.815 0.824 2.082 0.019 2.324 1.587 2.356 4.907 0.023 2.499 0.055 5.605 3.090 5.605 0.931 0 1.755-0.365 2.453-1.086 2.802-2.89 2.676-11.168 2.647-12.215 0 0 1.367-6.827 1.367-6.827s0.465 0 0.465 0c0 0 1.364 6.827 1.364 6.827-0.026 1.047-0.152 9.325 2.647 12.215 0.698 0.721 1.526 1.086 2.457 1.086 3.035 0 3.064-3.106 3.090-5.605 0.029-3.226 0.262-4.797 2.179-4.903 1.92 0.107 2.153 1.678 2.182 4.903 0.026 2.499 0.055 5.605 3.090 5.605 0.931 0 1.758-0.365 2.457-1.086 2.799-2.89 2.673-11.168 2.647-12.215 0 0 1.364-6.827 1.364-6.827s0.747 0 0.747 0c0 0 1.367 6.827 1.367 6.827-0.029 1.047-0.155 9.325 2.647 12.215 0.698 0.721 1.522 1.086 2.453 1.086 3.035 0 3.067-3.106 3.090-5.605 0.032-3.32 0.275-4.887 2.356-4.907 0.453-0.006 0.815-0.372 0.815-0.824-0.003-0.449-0.368-0.815-0.821-0.815zM15.719 3.517c0.963-1.093 2.34-1.733 3.791-1.762 0.543 0.152 2.731 0.727 4.826 0.727 0 0 2.020 0 2.020 0 2.095 0 4.283-0.575 4.826-0.727 1.451 0.029 2.828 0.669 3.791 1.762 0.979 1.115 1.432 2.596 1.248 4.066 0 0-0.482 2.408-0.482 2.408s-7.227 0-7.227 0c0 0 0-0.976 0-0.976 0-1.002-0.818-1.817-1.823-1.817 0 0-2.55 0-2.55 0-1.005 0-1.823 0.815-1.823 1.817 0 0 0 0.976 0 0.976s-7.363 0-7.363 0c0 0-0.482-2.408-0.482-2.408-0.184-1.471 0.268-2.951 1.248-4.066zM26.874 9.015c0 0 0 3.817 0 3.817 0 0.1-0.084 0.181-0.184 0.181 0 0-2.55 0-2.55 0-0.1 0-0.181-0.081-0.181-0.181 0 0 0-3.817 0-3.817 0-0.1 0.081-0.181 0.181-0.181 0 0 2.55 0 2.55 0 0.1 0 0.184 0.081 0.184 0.181zM34.091 18.224c-0.013 0.061-0.016 0.126-0.013 0.187 0.081 2.385-0.155 9.028-2.185 11.122-0.385 0.394-0.802 0.585-1.277 0.585-1.206 0-1.419-0.996-1.448-3.985-0.026-2.602-0.061-6.116-3.423-6.494-0.074-0.023-0.152-0.036-0.233-0.036 0 0-0.336 0-0.336 0-0.078 0-0.158 0.013-0.23 0.036-3.362 0.378-3.397 3.892-3.423 6.494-0.029 2.99-0.242 3.985-1.448 3.985-0.475 0-0.892-0.191-1.277-0.585-2.030-2.095-2.266-8.737-2.185-11.122 0.003-0.061-0.003-0.126-0.013-0.187 0 0-1.322-6.597-1.322-6.597s7.037 0 7.037 0c0 0 0 1.206 0 1.206 0 1.002 0.818 1.82 1.823 1.82 0 0 2.55 0 2.55 0 1.005 0 1.823-0.818 1.823-1.82 0 0 0-1.206 0-1.206s6.898 0 6.898 0c0 0-1.319 6.597-1.319 6.597zM37.411 9.991c0 0 0.048-0.236 0.048-0.236s0.045 0.236 0.045 0.236c0 0-0.094 0-0.094 0z">
            </path>
        </symbol>
        <symbol id="z-8" viewBox="0 0 19 32">
            <path
                d="M9.383 25.541v0.119c0 0 0.059 0 0.059 0h0.119c0.059 0 0.119 0 0.178 0v0c0.474 0.059 0.889 0.237 1.185 0.593 0.474 0.474 0.711 1.244 0.889 2.074 0.178 0.77 0.178 1.541 0.178 2.074 0 0.178 0 0.296 0 0.415s0 0.178 0 0.178v0c0.059 0.415 0.178 0.652 0.356 0.83s0.415 0.237 0.593 0.237c0.296 0 0.533-0.119 0.533-0.119v0c0.948-0.652 1.481-1.837 1.778-3.081s0.356-2.607 0.356-3.674c0-1.067-0.059-1.778-0.059-1.778h-0.119l0.119 0.059c0.948-1.363 1.185-2.844 1.185-3.97 0-1.422-0.356-2.43-0.356-2.43v0c-0.296-0.711-0.711-1.363-1.244-1.837s-1.185-0.77-2.015-0.83c-0.059 0-0.119 0-0.178 0-0.652 0-1.304-0.059-1.896 0.178s-1.126 0.119-1.659 0.119v0c-0.533-0.059-1.067 0.119-1.659-0.119-0.533-0.237-1.067-0.178-1.719-0.178-0.059 0-0.119 0-0.178 0-0.77 0.059-1.481 0.356-2.015 0.83s-0.948 1.126-1.244 1.837v0c0 0-0.356 1.007-0.356 2.43 0 1.185 0.237 2.607 1.185 3.97l0.119-0.059h-0.119c0 0-0.059 0.77-0.059 1.778 0 1.067 0.059 2.37 0.356 3.674 0.296 1.244 0.83 2.43 1.778 3.081v0c0 0 0.237 0.119 0.533 0.119 0.178 0 0.415-0.059 0.593-0.237s0.296-0.415 0.356-0.83v0c0 0 0-0.059 0-0.178s0-0.237 0-0.415c0-0.652 0.059-1.837 0.356-2.844 0.178-0.474 0.356-0.948 0.652-1.304s0.652-0.533 1.185-0.593c0.059 0 0.119 0 0.237 0 0.059 0 0.119 0 0.178 0v-0.237c-0.059 0-0.119 0-0.178 0s-0.178 0-0.237 0c-0.593 0.059-1.007 0.296-1.363 0.652-0.533 0.593-0.77 1.363-0.948 2.193s-0.178 1.6-0.178 2.133c0 0.356 0 0.593 0 0.593v0c-0.059 0.356-0.119 0.533-0.237 0.652s-0.237 0.119-0.415 0.119c-0.119 0-0.237 0-0.296-0.059-0.059 0-0.059 0-0.119 0v0 0 0c-0.83-0.593-1.363-1.719-1.659-2.963s-0.356-2.548-0.356-3.615c0-0.533 0-0.948 0.059-1.304 0-0.178 0-0.296 0-0.356s0-0.119 0-0.119 0-0.059 0-0.119c-0.889-1.304-1.126-2.726-1.126-3.852 0-0.652 0.059-1.244 0.178-1.659 0.059-0.178 0.059-0.356 0.119-0.474 0-0.059 0.059-0.119 0.059-0.119v-0.059c0.237-0.711 0.652-1.244 1.126-1.719 0.474-0.415 1.126-0.711 1.837-0.77 0.059 0 0.119 0 0.178 0 0.593 0 1.067-0.059 1.6 0.178s1.126 0.119 1.719 0.178v0c0.652-0.059 1.244 0.059 1.778-0.178s1.185-0.178 1.778-0.178c0.059 0 0.119 0 0.178 0 0.711 0.059 1.363 0.356 1.837 0.77s0.889 1.007 1.126 1.719v0 0c0 0 0.356 1.007 0.356 2.311 0 1.126-0.237 2.548-1.126 3.852 0 0 0 0.059 0 0.119 0 0 0 0.059 0 0.119 0 0.237 0.059 0.889 0.059 1.659 0 1.007-0.059 2.37-0.356 3.615s-0.83 2.311-1.659 2.963v0c-0.059 0-0.237 0.059-0.415 0.059-0.119 0-0.296-0.059-0.415-0.119-0.119-0.119-0.237-0.296-0.237-0.652v0c0 0 0-0.237 0-0.593 0-0.711-0.059-1.896-0.356-2.904-0.178-0.533-0.415-1.007-0.711-1.363-0.356-0.356-0.77-0.652-1.363-0.652v0c-0.059 0-0.119 0-0.178 0h-0.119c0 0-0.059 0-0.059 0v0.119z">
            </path>
            <path
                d="M1.679 11.615l0.119-0.119c-1.126-1.659-1.481-3.496-1.481-4.919 0-0.889 0.119-1.659 0.237-2.193 0.059-0.296 0.119-0.474 0.178-0.652 0-0.059 0.059-0.119 0.059-0.178s0-0.059 0-0.059v0c0.356-0.889 0.83-1.659 1.481-2.193s1.422-0.889 2.37-1.007c0.059 0 0.178 0 0.237 0 0.77 0 1.481 0.296 2.193 0.593s1.481 0.652 2.252 0.711v0c0.83-0.059 1.541-0.415 2.252-0.711s1.422-0.593 2.193-0.593c0.059 0 0.178 0 0.237 0 0.948 0.059 1.719 0.415 2.37 1.007 0.652 0.533 1.126 1.304 1.481 2.193v0c0.059 0.119 0.474 1.363 0.474 3.022 0 1.481-0.296 3.259-1.481 4.919l0.119 0.119-0.059-0.178h-0.059c-0.356 0.178-3.556 1.422-7.763 1.422-2.252 0-4.8-0.356-7.407-1.422l-0.119 0.356c2.667 1.126 5.274 1.481 7.585 1.481 4.563 0 7.941-1.481 7.941-1.481l0.059-0.059c1.185-1.778 1.541-3.615 1.541-5.156 0-1.837-0.474-3.081-0.474-3.141v0c-0.356-0.948-0.889-1.719-1.6-2.311s-1.541-1.007-2.607-1.067c-0.059 0-0.178 0-0.237 0-0.83 0-1.6 0.296-2.311 0.652-0.711 0.296-1.422 0.652-2.133 0.652v0c-0.711-0.059-1.422-0.356-2.133-0.652s-1.481-0.652-2.311-0.652c-0.059 0-0.178 0-0.237 0-1.007 0.059-1.896 0.474-2.607 1.067s-1.244 1.422-1.6 2.311v0c0 0-0.474 1.304-0.474 3.141 0 1.481 0.356 3.378 1.541 5.156 0 0 0.059 0.059 0.059 0.059l0.059-0.178z">
            </path>
            <path
                d="M8.316 1.481c0 0 0.593 0.178 1.363 0.415 0.77 0.178 1.719 0.415 2.489 0.415 0.237 0 0.533 0 0.711-0.059 0.237-0.059 0.415-0.178 0.533-0.356 0.059-0.059 0.059-0.178-0.059-0.237-0.059-0.059-0.178-0.059-0.237 0.059-0.059 0.059-0.178 0.178-0.356 0.237s-0.356 0.059-0.593 0.059c-0.711 0-1.659-0.178-2.37-0.415-0.356-0.119-0.711-0.178-0.948-0.296-0.119-0.059-0.237-0.059-0.296-0.119-0.059 0-0.119-0.059-0.119-0.059-0.119-0.059-0.178 0-0.237 0.119s0 0.178 0.119 0.237v0z">
            </path>
        </symbol>
        <symbol id="z-11" viewBox="0 0 45 32">
            <path
                d="M35.435 15.91c-0.994-0.090-2.712-0.271-3.797 1.175-0.181 0.542-0.633 1.085-0.814 1.537 0 0 1.898-7.955 1.898-7.955s0 0 0 0c0.181-1.356-0.181-2.802-0.994-3.887-0.904-1.085-2.26-1.808-3.616-1.808-0.090 0-0.181 0-0.181 0s-1.718 0.362-3.254 0.362c0 0-1.356-0.090-1.356-0.090-1.537-0.090-3.164-0.633-3.164-0.633-0.090 0-0.090 0-0.181 0-1.446-0.090-2.802 0.452-3.797 1.446-0.904 1.085-1.446 2.441-1.266 3.887 0 0 0 0 0 0s1.356 9.492 1.356 9.492c-0.090-0.271-1.627-2.169-1.627-2.169-0.633-0.814-1.175-1.266-1.627-1.446-0.994-0.362-2.26-0.542-3.706 0.904-0.271 0.181-0.271 0.633-0.090 0.904 0.271 0.181 0.633 0.181 0.904 0 0.994-0.904 1.627-0.904 2.441-0.633s2.712 3.525 3.345 4.61c0.452 0.723 0.633 0.994 0.723 1.085 0 0 0.271 0.542 0.271 0.542 0.814 3.525 1.989 5.243 3.616 5.333 0.723 0 1.175-0.271 1.446-0.452 0.723-0.904 0.633-1.627 0.452-3.345-0.181-1.446-0.271-2.169 0.271-2.802 0.090 0 0.271-0.181 0.723-0.181s0.633 0.181 0.723 0.271c0.542 0.633 0.181 1.356-0.090 2.802-0.271 1.718-0.542 2.441 0.181 3.345 0.181 0.271 0.633 0.633 1.266 0.633 0.090 0 0.090 0 0.090 0 1.537 0 2.712-2.079 3.435-3.345 0.994-1.718 1.898-3.797 3.616-7.232 0.181-0.181 0.904-1.356 2.621-1.085 0.362 0.090 0.633-0.181 0.723-0.542 0-0.362-0.181-0.633-0.542-0.723zM25.311 25.13c0.271-1.808 0.633-2.712-0.181-3.887-0.362-0.362-0.814-0.633-1.356-0.723 0 0-0.090 0-0.181 0 0 0-0.271 0-0.271 0s-0.090 0-0.181 0c-0.542 0.090-0.994 0.271-1.356 0.633-0.904 0.994-0.814 1.898-0.633 3.797 0.090 1.175 0.271 1.808-0.181 2.26 0 0-0.090 0.090-0.362 0.090-0.994 0-1.718-1.537-2.35-3.525 0-0.362-0.090-0.633-0.181-0.904-0.452-1.718-0.633-3.706-0.723-5.424 0 0 0 0 0 0s-1.266-7.684-1.266-7.684c-0.090-0.994 0.271-2.079 0.994-2.802s1.718-1.175 2.712-1.085c0.452 0.090 1.989 0.542 3.435 0.633 0 0 1.446 0.090 1.446 0.090 1.446 0 3.073-0.271 3.435-0.452 0.994 0.090 1.989 0.633 2.621 1.356 0.633 0.814 0.904 1.898 0.723 2.893 0 0-1.989 8.407-1.989 8.407 0 0.090 0 0.090 0 0.181-0.090 1.718-0.633 3.977-1.537 5.785 0 0 0 0.090 0 0.090-1.356 2.079-2.35 2.712-2.441 2.712 0 0 0 0 0 0-0.181 0-0.271-0.090-0.271-0.090-0.362-0.452-0.181-1.175 0.090-2.35z">
            </path>
            <path stroke-linejoin="miter" stroke-linecap="butt" stroke-miterlimit="4" stroke-width="0.4389"
                d="M25.763 15.096c0 0 0 0 0 0s-0.362 1.898-0.362 1.898c0 0.181 0 1.718-0.452 2.26-0.181 0.090-0.271 0.181-0.452 0.181-0.542 0-0.542-0.542-0.542-0.994 0-0.633-0.090-0.904-0.452-0.904s-0.362 0.271-0.362 0.904c0 0.452 0 0.994-0.542 0.994-0.181 0-0.362-0.090-0.452-0.181-0.542-0.542-0.452-2.079-0.452-2.26 0 0-0.452-1.898-0.452-1.898s0 0 0 0c0-0.362 0.090-0.723 0.362-0.994 0.181-0.271 0.542-0.452 0.904-0.452 0 0 0 0.090 0 0.090s0.452 0.090 0.814 0.090c0 0 0.362 0 0.362 0 0.452 0 0.814-0.090 0.814-0.090s0.090-0.090 0.090-0.090c0.362 0 0.633 0.181 0.904 0.452 0.181 0.271 0.362 0.633 0.271 0.994zM25.22 14.283c-0.090-0.181-0.362-0.271-0.633-0.271-0.090 0-0.542 0.090-0.904 0.090 0 0-0.362 0-0.362 0-0.362 0-0.723-0.090-0.814-0.090-0.271 0-0.542 0.090-0.723 0.271s-0.271 0.452-0.181 0.723c0 0 0.362 1.989 0.362 1.989s0 0 0 0c0 0.452 0 1.627 0.362 1.989 0.090 0.090 0.181 0.090 0.271 0.090 0.181 0 0.271-0.181 0.271-0.723 0-0.452 0-1.085 0.542-1.085 0.090-0.090 0.090-0.090 0.090-0.090s0.090 0 0.090 0c0 0 0 0 0 0.090 0.633 0 0.633 0.633 0.633 1.085 0 0.542 0 0.723 0.271 0.723 0.090 0 0.181 0 0.181-0.090 0.362-0.362 0.452-1.537 0.452-1.989 0 0 0 0 0 0s0.362-1.989 0.362-1.989c0-0.271-0.090-0.542-0.271-0.723z">
            </path>
        </symbol>
        <symbol id="z-10" viewBox="0 0 32 32">
            <path
                d="M4.981 6.757c0.134 0.397-0.131 2.71 0.006 3.661 0.491 3.405 1.827 3.669 1.846 6.082 0.009 1.241 0.052 2.502 0.126 3.739 0.246 4.073 0.495 9.568 3.874 11.761h0.924c2.108-1.804 1.565-2.698 1.981-5.978 0.261-2.053 1.042-4.594 2.38-5.511 1.436 0.993 2.152 3.792 2.376 5.543 0.352 2.76-0.11 4.508 2.135 5.946h0.741c1.267-0.86 2.098-1.92 2.694-3.683 0.491-1.452 0.84-3.602 0.984-5.21-0.378-0.363-0.343-0.322-0.985-0.486-0.078 1.254-0.433 3.569-0.817 4.885-0.376 1.288-1.307 3.088-2.247 3.432-1.592-0.5-1.345-4.524-1.709-6.27-1.379-6.615-4.741-7.036-6.304-0.238-0.447 1.944-0.060 5.675-1.602 6.528-0.691-0.091-1.464-1.135-1.82-1.867-1.705-3.507-1.522-9.355-1.708-13.312-0.108-2.301-2.733-3.392-1.638-9.336-0.455 0.056-0.924 0.064-1.236 0.317h0z">
            </path>
            <path
                d="M5.973 4.706l0.991 0.353 1.471-1.119c2.241-1.216 4.459-0.242 6.629-0.018 3.299 0.341 6.072-1.541 8.91 0.129 2.643 1.554 2.759 5.18 1.914 7.732-0.459 1.385-1.092 2.291-1.387 3.918-0.259 1.431-0.26 3.631-0.264 5.132 0.778-0.149 0.954-0.353 1.186-1.012-0.419-0.919 0.061-4.092 0.387-5.113 0.492-1.54 1.135-2.345 1.436-4.171 0.608-3.691-0.776-6.6-3.35-7.706-3.135-1.348-6.065 0.545-9.686-0.068-1.72-0.291-3.113-0.722-4.905-0.256-1.789 0.465-2.363 1.156-3.333 2.198l0-0z">
            </path>
            <path
                d="M19.395 15.329c1.635 0.047 0.884-1.557 1.486-2.678 0.488-0.909 2.264-0.737 3.030-1.097 0.486-1.88-1.252-1.092-2.452-1.685-1.124-0.556-0.639-2.038-1.302-3.125l-0.915-0.033c-0.612 0.882-0.259 2.303-1.031 2.984-0.834 0.737-2.89 0.060-2.834 1.354 0.049 1.123 2.146 0.657 2.899 1.283 0.729 0.605 0.203 2.022 1.117 2.996h0z">
            </path>
            <path
                d="M4.981 6.757c0.311-0.252 0.78-0.261 1.236-0.317 0.849-0.179 1.249-0.41 0.747-1.382l-0.991-0.353c-2.066 0.055-1.109-1.21-1.903-2.543-2.188-0.436-0.572 1.962-2.099 2.481-0.582 0.198-1.427 0.041-1.785 0.53-0.494 0.675 0.086 1.135 0.746 1.258 0.81 0.151 1.342 0.038 1.627 0.676 0.238 0.533 0.093 1.41 0.464 1.836 0.482 0.553 1.152 0.264 1.339-0.469 0.222-0.869-0.033-1.211 0.62-1.716v-0z">
            </path>
            <path
                d="M29.168-0h-0.549c-0.976 1.002-0.358 1.593-1.159 2.156-0.578 0.406-1.983 0.207-1.863 1.273 0.104 0.93 1.508 0.581 2.070 1.239 0.501 0.587 0.232 1.942 1.224 1.95 1.033 0.008 0.702-1.42 1.302-2.013 0.607-0.599 1.876-0.234 1.99-1.188 0.132-1.106-1.319-0.796-1.937-1.331-0.713-0.617-0.103-1.117-1.079-2.086z">
            </path>
            <path
                d="M25.423 19.821c-0.232 0.659-0.408 0.862-1.186 1.012-0.515 0.219-1.138 0.21-1.208 0.857-0.078 0.725 0.458 0.783 1.033 0.93 0.643 0.165 0.607 0.123 0.985 0.486 0.471 0.57 0.453 1.247 0.797 1.869 1.449 0.275 1.034-0.646 1.581-1.614 0.45-0.797 1.276-0.616 2.186-1.205 0.109-2.098-1.722-0.458-2.33-2.32-0.224-0.687-0.102-1.405-0.963-1.366-0.722 0.033-0.809 0.72-0.894 1.35h-0z">
            </path>
            <path
                d="M16.279 10.999c1.006 0.263 1.859 0.164 2.509 0.825 0.839 0.853 0.452 1.56 0.919 2.519 0.328-1.021 0.088-1.796 0.887-2.549 0.743-0.699 1.568-0.444 2.523-0.831-3.929-0.57-2.58-1.174-3.433-3.324-0.378 0.976-0.090 1.821-0.837 2.551-0.705 0.689-1.583 0.49-2.568 0.808l0-0z">
            </path>
            <path
                d="M23.901 21.761c2.359 0.842 1.505 0.303 2.454 2.438 0.716-1.869 0.34-1.835 2.427-2.41-0.598-0.317-1.226-0.293-1.698-0.754-0.462-0.453-0.472-1.145-0.783-1.693-0.608 2.316-0.977 1.797-2.401 2.419l0-0z">
            </path>
            <path
                d="M26.473 3.324c0.735 0.37 0.995 0.114 1.636 0.756 0.659 0.659 0.388 0.886 0.78 1.619 0.4-0.677 0.039-0.882 0.789-1.61 0.69-0.67 0.926-0.421 1.64-0.776-0.646-0.21-1.251-0.295-1.687-0.755-0.533-0.563-0.447-1.141-0.742-1.622-0.346 0.645-0.226 1.103-0.736 1.628-0.453 0.465-1.025 0.524-1.68 0.76l-0-0z">
            </path>
            <path
                d="M0.945 5.66c2.62 0.607 2.004 0.25 2.63 2.631 0.811-3.129 0.562-1.858 2.658-2.664-2.295-0.547-2.055-0.376-2.638-2.633-0.256 0.718-0.118 1.36-0.625 1.936-0.479 0.544-1.231 0.492-2.026 0.73l-0 0z">
            </path>
        </symbol>
        <symbol id="z-12" viewBox="0 0 35 32">
            <path
                d="M0 3.484c0-0.941 0.068-1.882 0.787-2.601 0.915-0.915 1.673-0.853 2.9-0.86 8.783-0.051 17.887-0.002 26.669 0 1.561 0 3.728-0.253 4.508 1.169 0.284 0.519 0.231 0.237 0.36 0.46s0.192 1.18 0.191 1.532l0.001 25.713c-0 1.030-0.321 1.872-0.94 2.385-0.737 0.61-1.335 0.716-2.565 0.718h-28.164c-1.238 0-2.139-0.070-2.838-0.742-0.823-0.791-0.909-1.526-0.909-2.6v-25.174zM1.116 30.627c0.052 0.188 0.706 0.722 1.050 0.697l28.191 0.047c0.678-0.001 1.356 0.006 2.034-0.002 0.955-0.011 0.941-0.109 1.531-0.45 0.95-0.548 0.818-1.837 0.818-3.218 0-1.355 0.001-2.711 0.001-4.066l-0.001-20.211c-0-0.772 0.029-1.203-0.292-1.756-0.216-0.372-0.665-0.792-1.132-0.893-0.849-0.144-6.479-0.064-7.803-0.064l-19.673 0.002c-0.795 0-3.278-0.137-3.846 0.123-1.151 0.527-1.281 1.328-1.295 2.588-0.015 1.312-0.005 2.636 0.003 3.947 0.017 2.628-0.024 5.266-0.009 7.893l0.010 13.754c0 0.294 0.017 0.59 0.094 0.869 0.112 0.41 0.255 0.414 0.318 0.74z">
            </path>
            <path fill="none" stroke-linejoin="miter" stroke-linecap="butt" stroke-miterlimit="22.9256"
                stroke-width="14.4501"
                d="M29.863 28.898c-0.050-4.152 0.001-8.341 0.001-12.497 0-4.146-0.002-8.292 0-12.438 0-0.579 0.064-0.878-0.237-1.301-0.174-0.244-0.505-0.581-0.908-0.64-0.69-0.101-20.735-0.021-21.862-0.018-0.394 0.008-0.776 0.393-0.953 0.649-0.287 0.416-0.288 0.78-0.287 1.43l0 10.285c0 4.564 0.012 9.13-0 13.694-0.003 0.97 0.304 1.937 1.417 1.976s2.292 0.003 3.411 0.003l17.162 0c0.616 0.002 1.141 0.077 1.553-0.189 0.179-0.115 0.331-0.214 0.456-0.375 0.056-0.073 0.014-0.019 0.077-0.105l0.099-0.138c0.080-0.142 0.066-0.156 0.071-0.336z">
            </path>
            <path
                d="M12.25 21.423c0.039-0.93-0.101-1.839-0.285-2.589-0.152-0.62-0.285-1.052-0.539-1.62-0.086-0.193-0.145-0.331-0.224-0.501-0.635-1.366-1.091-2.635-1.304-4.392-0.409-3.379 1.405-6.752 4.733-6.755 1.308-0.001 2.278 0.405 3.14 0.933 0.737 0.451 0.625 0.448 1.023 0.249 0.546-0.273 1.326-0.447 2.056-0.449 0.936-0.002 1.696 0.357 2.384 0.961 0.502 0.441 1.073 1.518 1.181 2.16l0.16 0.664c0.1 0.477 0.007 1.97-0.071 2.375-0.050 0.26-0.054 0.481-0.095 0.762-0.034 0.231-0.115 0.361-0.173 0.651-0.073 0.367-0.27 0.806-0.378 1.236-0.132 0.522-0.315 0.736-0.489 1.173l-0.766 1.736c-0.284 0.78-0.262 1.366-0.256 2.21l0.252 2.27c0.294 1.232 0.619 2.275-0.084 3.212l-0.118 0.136c-0.283 0.259-0.694 0.474-1.252 0.441-0.638-0.038-0.838-0.542-1.133-0.986-0.041-0.062-0.139-0.232-0.155-0.266l-0.65-1.811c-0.054-0.231-0.119-0.323-0.202-0.631l-0.421-1.243c-0.091-0.19-0.166-0.41-0.25-0.585-0.15-0.312-0.415-0.826-0.659-1.016-0.924-0.72-1.159 0.769-1.494 1.428-0.18 0.353-0.619 2.607-0.86 3.328-0.345 1.030-0.854 2.365-2.18 1.586-0.807-0.473-0.955-1.192-0.96-2.338l0.069-2.332zM19.665 6.981l-0.202 0.144c-0.173 0.101-0.25 0.064-0.882 0.417-0.114 0.063-0.182 0.069-0.338 0.139-0.786 0.353-0.824 0.808-1.46 0.646-0.157-0.755 0.519-0.597 0.901-1.136-0.045-0.118-0.018-0.052-0.062-0.132l-0.062-0.085c-0.45-0.217-0.824-0.557-1.721-0.7-0.807-0.129-1.266-0.31-2.156-0.037-0.512 0.157-0.442 0.064-0.891 0.314-0.768 0.427-1.442 1.116-1.799 1.974-0.254 0.611-0.512 1.011-0.562 1.891-0.024 0.412-0.022 0.846-0.017 1.258 0.003 0.196 0.001 0.407 0.011 0.601 0.013 0.244 0.184 1.207 0.31 1.55 0.061 0.166 0.052 0.347 0.081 0.542 0.035 0.236 0.093 0.316 0.162 0.495 0.063 0.163 0.114 0.274 0.167 0.43 0.075 0.219 0.131 0.315 0.185 0.479 0.145 0.439-0.043 0.21 0.39 0.847 0.344 0.506 0.502 1.186 0.696 1.764 0.24 0.714 0.171 1.46 0.323 2.129 0.308 1.358-0.639 4.863 0.83 5.21 0.521 0.123 0.668-0.101 0.851-0.383 0.218-0.336 0.788-2.306 0.872-2.828 0.113-0.698 0.562-2.293 0.92-2.863 0.648-1.032 1.806-0.69 2.245 0.152 0.625 1.201 0.558 1.138 1.053 2.669 0.202 0.626 0.657 2.205 0.996 2.706 0.175 0.258 0.305 0.549 0.701 0.568 0.883 0.041 1.202-0.536 1.194-1.332-0.006-0.556-0.143-0.822-0.209-1.618-0.029-0.355-0.062-0.208-0.135-0.49-0.048-0.186-0.038-0.384-0.057-0.576-0.021-0.213-0.076-0.335-0.117-0.511-0.174-0.754 0.004-2.654 0.27-3.391l1.281-3.013 0.602-2.561c0.077-0.566 0.055-1.817-0.058-2.342-0.052-0.244-0.184-0.755-0.287-0.966l-1.008-1.432c-1.001-1.018-2.854-0.512-3.018-0.532z">
            </path>
            <path
                d="M31.62 5.381c0.341-0.064 0.992-0.045 1.372-0.027 0.395 0.019 0.678 0.206 0.765 0.588 0.054 0.234 0.034 1.092 0.024 1.372-0.036 1.007-0.903 0.925-1.994 0.864-0.346-0.019-0.326-0.042-0.521-0.224-0.009-0.008-0.022-0.020-0.030-0.029s-0.022-0.021-0.031-0.029c-0.353-0.348-0.278-0.877-0.233-1.725 0.024-0.46 0.229-0.712 0.648-0.791zM31.521 7.642c0.381 0.137 1.337 0.133 1.716-0.024 0.147-0.321 0.124-1.27 0.017-1.682-0.262-0.154-1.436-0.226-1.684-0.038-0.31 0.235-0.171 1.451-0.048 1.744z">
            </path>
            <path
                d="M3.992 20.418c-0.896 0.116-2.208 0.274-2.308-0.721-0.053-0.531-0.1-1.403 0.28-1.793 0.258-0.264 1.624-0.21 1.833-0.17 0.359 0.069 0.354 0.279 0.668 0.403l-0.037-0.025c0.097 0.838 0.285 1.988-0.436 2.306zM3.936 20.069c0.128-0.351 0.109-1.373 0.041-1.861-0.167-0.057-1.697-0.279-1.84 0.148-0.046 0.138-0.008-0.071-0.042 0.175-0.027 0.195-0.040 1.242 0.084 1.398 0.329 0.293 1.262 0.069 1.757 0.14z">
            </path>
            <path
                d="M2.731 26.64c-0.663 0.001-1.038-0.167-1.068-0.848-0.089-2.069 0.166-1.934 1.786-1.933 0.615 0 0.988 0.182 0.987 0.913-0.004 1.781 0.098 1.865-1.705 1.868zM3.985 26.181l-0.014 0.008c0.091-0.503 0.226-1.346-0.017-1.832-0.52-0.141-1.383-0.135-1.834 0.052-0.052 0.487-0.123 1.396 0.078 1.772 0.376 0.087 1.394 0.064 1.787 0z">
            </path>
            <path
                d="M33.74 12.992c0.001 0.384 0.050 0.631-0.128 0.916-0.010 0.015-0.064 0.094-0.077 0.108-0.010 0.011-0.021 0.024-0.032 0.034-0.269 0.259-0.668 0.242-1.113 0.243-1.361 0.003-1.439-0.21-1.371-1.903 0.026-0.638 0.427-0.806 1.071-0.806 1.368 0.002 1.648-0.094 1.65 1.409zM32.091 13.989c0.41 0.001 0.928 0.075 1.162-0.139 0.008-0.007 0.021-0.020 0.028-0.028l0.144-1.309c0.001-0.497-0.247-0.638-0.733-0.644-1.365-0.017-1.435-0.033-1.392 1.486 0.003 0.099 0.008 0.24 0.047 0.333 0.075 0.178-0.032 0.035 0.17 0.169 0.17 0.112 0.305 0.132 0.574 0.132z">
            </path>
            <path
                d="M3.992 13.257c-0.896 0.116-2.208 0.274-2.308-0.721-0.053-0.531-0.1-1.403 0.28-1.793 0.258-0.264 1.624-0.21 1.833-0.17 0.359 0.069 0.354 0.279 0.668 0.403l-0.037-0.025c0.097 0.838 0.285 1.988-0.436 2.306zM3.936 12.908c0.128-0.351 0.109-1.373 0.041-1.861-0.167-0.057-1.697-0.279-1.84 0.148-0.046 0.138-0.008-0.071-0.042 0.175-0.027 0.195-0.040 1.242 0.084 1.398 0.329 0.293 1.262 0.069 1.757 0.14z">
            </path>
            <path
                d="M3.992 6.374c-0.896 0.116-2.208 0.274-2.308-0.721-0.053-0.531-0.1-1.403 0.28-1.793 0.258-0.264 1.624-0.21 1.833-0.17 0.359 0.069 0.354 0.279 0.668 0.403l-0.037-0.025c0.097 0.838 0.285 1.988-0.436 2.306zM3.936 6.025c0.128-0.351 0.109-1.373 0.041-1.861-0.167-0.057-1.697-0.279-1.84 0.148-0.046 0.138-0.008-0.071-0.042 0.175-0.027 0.195-0.040 1.242 0.084 1.398 0.329 0.293 1.262 0.069 1.757 0.14z">
            </path>
            <path
                d="M31.62 16.129c0.341-0.064 0.992-0.045 1.372-0.027 0.395 0.019 0.678 0.206 0.765 0.588 0.054 0.234 0.034 1.092 0.024 1.372-0.036 1.007-0.903 0.925-1.994 0.864-0.346-0.019-0.326-0.042-0.521-0.224-0.009-0.008-0.022-0.020-0.030-0.029s-0.022-0.020-0.031-0.029c-0.353-0.348-0.278-0.877-0.233-1.725 0.024-0.46 0.229-0.712 0.648-0.791zM31.521 18.39c0.381 0.137 1.337 0.133 1.716-0.024 0.147-0.321 0.124-1.27 0.017-1.682-0.262-0.154-1.436-0.226-1.684-0.038-0.31 0.235-0.171 1.451-0.048 1.744z">
            </path>
            <path
                d="M33.74 23.74c0.001 0.384 0.050 0.631-0.128 0.916-0.010 0.015-0.064 0.094-0.077 0.108-0.010 0.011-0.021 0.024-0.032 0.034-0.269 0.259-0.668 0.242-1.113 0.243-1.361 0.003-1.439-0.209-1.371-1.903 0.026-0.638 0.427-0.806 1.071-0.806 1.368 0.002 1.648-0.094 1.65 1.409zM32.091 24.738c0.41 0.001 0.928 0.075 1.162-0.139 0.008-0.007 0.021-0.020 0.028-0.028l0.144-1.309c0.001-0.497-0.247-0.638-0.733-0.644-1.365-0.017-1.435-0.033-1.392 1.486 0.003 0.099 0.008 0.24 0.047 0.333 0.075 0.178-0.032 0.035 0.17 0.169 0.17 0.112 0.305 0.132 0.574 0.132z">
            </path>
        </symbol>
    </defs>
</svg>